<?xml version="1.0" encoding="iso-8859-1"?>
<!-- Uploaded to: SVG Repo, www.svgrepo.com, Generator: SVG Repo Mixer Tools -->
<svg height="800px" width="800px" version="1.1" id="Layer_1" xmlns="http://www.w3.org/2000/svg" xmlns:xlink="http://www.w3.org/1999/xlink" 
	 viewBox="0 0 512 512" xml:space="preserve">
<path style="fill:#E0A03D;" d="M20.309,334.036c43.103,130.169,183.57,200.751,313.74,157.647
	c130.17-43.103,200.751-183.57,157.647-313.74S308.126-22.807,177.956,20.296C47.787,63.401-22.795,203.867,20.309,334.036z
	 M204.447,335.488c-17.466-11.31-31.341-28.423-38.39-49.715c-16.45-49.676,10.485-103.28,60.162-119.73
	c49.677-16.449,103.281,10.487,119.73,60.163c16.45,49.676-10.486,103.281-60.162,119.73c-21.454,7.104-43.641,6.116-63.252-1.302"
	/>
<path style="fill:#AF6518;" d="M256.003,7.711C118.882,7.711,7.724,118.869,7.724,255.99v14.452
	c0,14.138,11.46,25.598,25.597,25.598s25.597-11.46,25.597-25.598V255.99v-5.041c0-14.138,11.46-25.598,25.597-25.598
	s25.598,11.46,25.598,25.598v5.041v54.989c0,14.138,11.46,25.598,25.597,25.598s25.598-11.46,25.598-25.598V252.9
	c1.632-50.898,43.4-91.66,94.694-91.66s93.062,40.761,94.694,91.66v58.079c0,14.138,11.46,25.598,25.598,25.598
	c14.138,0,25.597-11.46,25.597-25.598V255.99v-5.041c0-14.138,11.46-25.598,25.598-25.598c14.138,0,25.597,11.46,25.597,25.598
	v5.041v14.452c0,14.138,11.46,25.598,25.597,25.598s25.597-11.46,25.597-25.598V255.99C504.282,118.869,393.123,7.711,256.003,7.711
	z"/>
<g>
	<path style="fill:#491E17;" d="M511.882,263.852c0.486-16.149-0.58-32.37-3.204-48.478c-5.327-33.598-17.249-65.527-35.131-94.249
		c-17.521-28.38-40.417-52.969-67.646-72.558c-27.293-19.813-58.01-33.879-90.651-41.581c-32.81-7.873-66.779-9.114-100.259-3.607
		c-33.133,5.306-64.634,17.03-93.03,34.558C93.174,55.558,68.258,78.691,48.46,106.255c-19.617,27.067-33.588,57.496-41.308,89.825
		c-5.364,22.096-7.722,44.722-7.031,67.376v6.987c0,2.58,0.305,5.088,0.865,7.499c1.73,19.667,5.744,39.272,12.106,58.484
		c21.485,64.883,66.95,117.516,128.022,148.203c36.187,18.183,75.282,27.371,114.635,27.37c27.061,0,54.248-4.346,80.687-13.101
		c64.883-21.485,117.516-66.95,148.203-128.023c14.878-29.608,23.714-61.167,26.442-93.217c0.518-2.325,0.8-4.738,0.8-7.216v-6.591
		H511.882z M427.49,217.751c-18.306,0-33.198,14.893-33.198,33.198v60.03c0,9.924-8.074,17.998-17.997,17.998
		c-9.924,0-17.998-8.074-17.998-17.998v-50.31c0.343-7.551-0.165-15.147-1.525-22.673c-0.057-0.319-0.12-0.637-0.179-0.956
		c-0.067-0.354-0.131-0.707-0.202-1.06c-2.129-10.772-5.968-21.068-11.368-30.551c-0.057-0.1-0.116-0.198-0.172-0.298
		c-0.686-1.196-1.392-2.381-2.128-3.55c-0.331-0.53-0.674-1.051-1.015-1.574c-0.276-0.421-0.557-0.839-0.84-1.257
		c-6.2-9.222-13.86-17.356-22.756-24.118c-0.891-0.682-1.793-1.348-2.703-1.998c-0.247-0.175-0.493-0.351-0.743-0.524
		c-9.935-6.973-20.967-12.079-32.639-15.131c-14.131-3.745-28.851-4.398-43.324-1.884c-0.001,0-0.002,0-0.003,0.001
		c-0.185,0.032-0.371,0.068-0.556,0.101c-11.491,2.017-22.485,5.975-32.579,11.708c-0.159,0.089-0.317,0.18-0.476,0.272
		c-1.094,0.629-2.179,1.279-3.252,1.95c-0.545,0.338-1.086,0.683-1.624,1.032c-0.001,0.002-0.003,0.003-0.005,0.003
		c-9.761,6.321-18.344,14.261-25.433,23.546c-0.717,0.932-1.412,1.879-2.095,2.831c-0.156,0.22-0.317,0.438-0.471,0.659
		c-6.728,9.556-11.735,20.147-14.84,31.368c-2.924,10.431-4.15,21.199-3.655,31.966l-0.003,50.448
		c0,9.924-8.074,17.998-17.998,17.998c-9.923,0-17.997-8.074-17.997-17.998v-60.03c0-18.306-14.893-33.198-33.198-33.198
		c-18.305,0-33.197,14.893-33.197,33.198v19.492c0,9.924-8.074,17.998-17.997,17.998c-8.213,0-15.145-5.537-17.294-13.071
		c-0.34-4.117-0.577-8.237-0.702-12.355v-7.024c0-19.126,2.233-37.905,6.543-56.056c4.298-17.799,10.654-35.236,19.08-52.005
		c5.827-11.595,12.507-22.58,19.941-32.916c7.462-10.28,15.773-20.053,24.929-29.21c13.491-13.49,28.309-25.166,44.147-34.938
		c15.658-9.581,32.521-17.439,50.381-23.353c11.891-3.937,23.94-6.915,36.061-8.963c1.295-0.213,2.589-0.432,3.889-0.623
		c0.012-0.001,0.025-0.003,0.038-0.005c11.706-1.729,23.62-2.608,35.669-2.608c17.669,0,35.045,1.902,51.902,5.59
		c0.702,0.156,1.406,0.306,2.107,0.468c0.791,0.181,1.58,0.373,2.369,0.561c17.689,4.297,35.016,10.629,51.683,19.003
		c11.601,5.829,22.591,12.514,32.931,19.951c10.275,7.459,20.043,15.766,29.195,24.918c13.265,13.265,24.777,27.814,34.45,43.355
		c9.801,15.881,17.828,33.012,23.843,51.174c4.077,12.312,7.119,24.798,9.17,37.354c1.996,12.552,3.03,25.347,3.03,38.303v7.396
		c-0.119,3.93-0.335,7.855-0.649,11.772c-2.08,7.64-9.059,13.28-17.349,13.28c-9.924,0-17.997-8.074-17.997-17.998v-19.492
		C460.687,232.644,445.794,217.751,427.49,217.751z M471.058,364.051c-28.864,57.444-78.37,100.208-139.399,120.417
		s-126.275,15.442-183.717-13.422C90.498,442.181,47.733,392.675,27.524,331.647c-3.394-10.248-6.066-20.617-8.055-31.047
		c4.22,1.946,8.91,3.04,13.852,3.04c18.305,0,33.197-14.893,33.197-33.198V250.95c0-9.924,8.074-17.998,17.997-17.998
		c9.924,0,17.998,8.074,17.998,17.998v60.03c0,18.306,14.893,33.198,33.197,33.198c18.306,0,33.198-14.892,33.198-33.198v-1.296
		c7.932,12.853,18.643,23.92,31.407,32.185l8.262-12.759c-16.795-10.876-29.004-26.686-35.306-45.724
		c-2.59-7.822-4.024-15.836-4.363-23.849v-6.511c0.233-6.981,1.293-13.821,3.117-20.406c1.509-5.379,3.541-10.654,6.105-15.757
		c1.908-3.798,4.072-7.413,6.458-10.839c3.146-4.48,6.73-8.696,10.737-12.585c4.842-4.699,10.151-8.756,15.803-12.162
		c0.436-0.261,0.865-0.53,1.306-0.783c0.485-0.281,0.98-0.543,1.47-0.814c0.862-0.473,1.725-0.948,2.605-1.392
		c0.136-0.069,0.274-0.134,0.409-0.202c3.743-1.869,7.643-3.486,11.686-4.826c2.653-0.879,5.329-1.619,8.019-2.238
		c0.291-0.066,0.582-0.129,0.873-0.192c0.935-0.206,1.873-0.389,2.81-0.563c0.72-0.131,1.441-0.255,2.166-0.368
		c0.49-0.078,0.982-0.151,1.472-0.22c1.153-0.159,2.308-0.306,3.472-0.42c0.062-0.006,0.125-0.012,0.186-0.018
		c2.776-0.266,5.577-0.4,8.398-0.4c5.601,0,11.126,0.534,16.519,1.566c0.216,0.043,0.433,0.085,0.65,0.129
		c1.002,0.2,1.997,0.423,2.991,0.657c0.595,0.143,1.189,0.291,1.782,0.446c0.617,0.16,1.232,0.326,1.844,0.5
		c0.973,0.279,1.943,0.569,2.906,0.882c0.248,0.08,0.496,0.158,0.743,0.24c3.974,1.328,7.882,2.943,11.693,4.858
		c2.484,1.247,4.887,2.609,7.214,4.066c0.157,0.099,0.317,0.193,0.474,0.294c0.767,0.486,1.512,0.998,2.262,1.507
		c0.547,0.374,1.1,0.739,1.639,1.126c0.289,0.206,0.567,0.423,0.853,0.631c3.18,2.343,6.228,4.902,9.107,7.696
		c5.079,4.929,9.486,10.38,13.17,16.234c0.104,0.167,0.201,0.338,0.304,0.507c0.582,0.939,1.15,1.887,1.695,2.847
		c2.765,4.903,5.075,10.109,6.884,15.571c0.911,2.75,1.681,5.526,2.313,8.316c0.035,0.16,0.064,0.321,0.098,0.481
		c0.244,1.109,0.467,2.218,0.668,3.332c0.71,4.035,1.146,8.143,1.285,12.3v6.643c-0.51,12.183-3.584,24.229-9.223,35.451
		c-10.451,20.8-28.378,36.285-50.476,43.603c-18.917,6.264-39.577,5.839-58.174-1.196l-5.378,14.218
		c11.591,4.385,23.861,6.584,36.147,6.584c10.871,0,21.753-1.723,32.182-5.175c23.112-7.653,42.32-22.928,54.92-43.429v1.257
		c0,18.306,14.893,33.198,33.198,33.198c18.306,0,33.197-14.892,33.197-33.198v-60.03c0-9.924,8.074-17.998,17.998-17.998
		c9.923,0,17.997,8.074,17.997,17.998v19.492c0,18.306,14.893,33.198,33.197,33.198c4.973,0,9.689-1.107,13.928-3.074
		C488.475,322.35,481.288,343.692,471.058,364.051z"/>
	<path style="fill:#491E17;" d="M242.304,455.563l-1.032,15.166c4.956,0.336,9.897,0.504,14.827,0.504
		c48.395,0,95.224-16.122,133.231-46.13l-9.419-11.93C340.999,443.895,292.125,458.955,242.304,455.563z"/>
</g>
</svg>