<?xml version="1.0" encoding="iso-8859-1"?>
<!-- Uploaded to: SVG Repo, www.svgrepo.com, Generator: SVG Repo Mixer Tools -->
<svg height="800px" width="800px" version="1.1" id="Layer_1" xmlns="http://www.w3.org/2000/svg" xmlns:xlink="http://www.w3.org/1999/xlink" 
	 viewBox="0 0 512 512" xml:space="preserve">
<polyline style="fill:#08AA6E;" points="158.667,408.028 110.479,408.028 98.92,185.081 413.081,185.081 401.521,408.028 
	178.946,408.028 "/>
<g>
	<polygon style="fill:#FFE285;" points="402.928,185.081 407.924,88.713 104.076,88.713 109.072,185.081 	"/>
	<polyline style="fill:#FFE285;" points="158.667,408.028 120.631,408.028 125.628,504.396 386.372,504.396 391.369,408.028 
		178.947,408.028 	"/>
</g>
<circle style="fill:#2BA5B1;" cx="256" cy="296.554" r="69.956"/>
<g>
	<polyline style="fill:#F6A230;" points="178.947,48.158 407.924,48.158 407.924,7.604 104.076,7.604 104.076,48.158 
		158.667,48.158 	"/>
	<polyline style="fill:#F6A230;" points="158.667,48.158 73.909,48.158 73.909,88.713 438.091,88.713 438.091,48.158 
		178.947,48.158 	"/>
</g>
<g>
	<path style="fill:#53180F;" d="M256,374.115c42.768,0,77.56-34.793,77.56-77.56s-34.793-77.56-77.56-77.56
		c-42.767,0-77.56,34.793-77.56,77.56S213.233,374.115,256,374.115z M256,234.202c34.381,0,62.352,27.971,62.352,62.352
		S290.381,358.907,256,358.907s-62.352-27.971-62.352-62.352S221.619,234.202,256,234.202z"/>
	<path style="fill:#53180F;" d="M445.694,96.317V40.554h-30.166V0H96.472v40.554H66.306v55.762h30.551l4.208,81.161H90.912
		l12.348,238.154h10.153L118.408,512h275.184l4.996-96.369h10.153l12.349-238.154h-10.154l4.208-81.161H445.694z M81.513,81.109
		V55.762h14.959h62.195V40.554H111.68V15.208h288.639v25.347H178.947v15.208h236.582h14.958v25.347h-14.554H96.067H81.513z
		 M394.301,400.424H178.947h-0.001v15.208h0.001H383.36l-4.208,81.161H132.847l-4.208-81.161h30.027l0,0v-15.208l0,0h-40.967
		l-10.77-207.738h298.142L394.301,400.424z M395.708,177.477H116.292l-4.208-81.161h287.831L395.708,177.477z"/>
</g>
</svg>